Coordinates
version=1
nRows=23
nColumns=28
inDegrees=yes

Units are S.I. units (second, meters, Newtons, ...)
If the header above contains a line with 'inDegrees', this indicates whether rotational values are in degrees (yes) or radians (no).

endheader
time	pelvis_tilt	pelvis_list	pelvis_rotation	pelvis_tx	pelvis_ty	pelvis_tz	hip_flexion_r	hip_adduction_r	hip_rotation_r	knee_angle_r	knee_rotation_r	knee_adduction_r	ankle_angle_r	subtalar_angle_r	mtp_angle_r	hip_flexion_l	hip_adduction_l	hip_rotation_l	knee_angle_l	knee_rotation_l	knee_adduction_l	ankle_angle_l	subtalar_angle_l	mtp_angle_l	lumbar_extension	lumbar_bending	lumbar_rotation
      0.57000000	     12.47424458	      6.99635435	    -85.54784850	     -0.21153386	      0.96336852	     -0.22568037	     36.83688175	    -16.91924202	     15.31650859	    -28.08259847	    -14.11411147	      9.31799432	      3.86447946	     -8.85227315	     -5.60491908	      7.85263493	     14.81747809	     12.94149952	    -18.49623475	      7.76576529	     -4.00751722	     21.67471444	     -4.87304299	     -4.64476826	      0.00000000	      0.00000000	      0.00000000
      0.58000000	     12.51239339	      7.18576741	    -85.48395001	     -0.21241818	      0.96227696	     -0.21380028	     35.91221403	    -16.52327079	     15.19016024	    -23.13648687	    -15.67128730	      7.54556472	      4.78567578	     -7.28709326	     -4.56290641	      7.23397752	     14.64684469	     12.83659170	    -18.45396605	      8.04686440	     -4.08074290	     22.27915737	     -3.67968104	     -4.57801284	      0.00000000	      0.00000000	      0.00000000
      0.59000000	     12.47357983	      7.83658556	    -85.49996948	     -0.21345242	      0.96034705	     -0.20176030	     35.38563214	    -16.00901656	     15.34922930	    -18.00232234	    -16.95799814	      5.65793122	      5.06992936	     -6.31282490	     -4.32793147	      7.14641147	     14.38438372	     12.69257537	    -18.54368522	      7.82736329	     -4.39045727	     22.72652655	     -3.83640712	     -4.62141592	      0.00000000	      0.00000000	      0.00000000
      0.60000000	     12.33872794	      7.67740211	    -85.18694445	     -0.21474100	      0.95948167	     -0.18936039	     33.68965507	    -15.46328395	     15.06104436	    -12.69651947	    -17.87637323	      3.46012591	      5.92068825	     -4.65181169	     -3.77424527	      6.17955758	     13.87827237	     12.50843687	    -18.63890478	      7.59489316	     -4.66582147	     23.36297958	     -3.15566314	     -4.67813874	      0.00000000	      0.00000000	      0.00000000
      0.61000000	     12.32688049	      8.29872385	    -85.29438093	     -0.21638402	      0.95722626	     -0.17761008	     33.13893220	    -15.06546883	     15.49391813	     -7.75322013	    -18.72318656	      1.83215047	      5.65236244	     -4.00401712	     -3.69879768	      6.25470552	     13.51874467	     12.01421045	    -18.95240971	      7.31900394	     -5.02167183	     23.84782512	     -3.03240756	     -4.71176600	      0.00000000	      0.00000000	      0.00000000
      0.62000000	     11.97195268	      8.37373222	    -84.99668232	     -0.21817406	      0.95580440	     -0.16493746	     31.67427873	    -14.51900037	     15.34747810	     -2.91777533	    -19.64519253	      0.19230182	      5.48552400	     -3.09590663	     -3.64685719	      5.74416893	     12.71545945	     11.55027122	    -19.40807802	      7.01288069	     -5.32784398	     24.64255130	     -2.04306575	     -4.73562088	      0.00000000	      0.00000000	      0.00000000
      0.63000000	     11.77752846	      8.77211998	    -84.85278879	     -0.21994883	      0.95376227	     -0.15249787	     31.00135264	    -14.22887020	     15.39743092	      0.88659398	    -21.07635557	     -0.84765067	      5.17782354	     -1.77667917	     -3.71918635	      5.59407963	     12.10522712	     11.15519010	    -19.85220788	      6.40450839	     -5.72257483	     25.09180235	     -1.93566022	     -4.76540933	      0.00000000	      0.00000000	      0.00000000
      0.64000000	     11.67283848	      8.79979556	    -84.60456063	     -0.22091563	      0.95218284	     -0.14030173	     30.53228314	    -14.19588234	     14.94260792	      3.06610674	    -22.99700597	     -1.23253615	      6.03729988	      0.72370986	     -3.71110513	      5.08305034	     11.77310802	     11.07772245	    -20.32288211	      6.11363447	     -5.81905303	     25.53282806	     -1.56787736	     -4.80538678	      0.00000000	      0.00000000	      0.00000000
      0.65000000	     11.71245400	      9.04053395	    -84.51596370	     -0.22150382	      0.95031188	     -0.12844727	     30.87725131	    -14.23114678	     15.34084052	      3.81541665	    -25.46408017	     -1.38408645	      6.71202591	      2.95699108	     -3.52378385	      4.86996949	     11.67426376	     11.16604938	    -20.93481722	      5.99292251	     -5.98018252	     25.72339104	     -1.43124454	     -4.93952508	      0.00000000	      0.00000000	      0.00000000
      0.66000000	     11.95372281	      9.40912041	    -84.24531680	     -0.22136967	      0.94807427	     -0.11685013	     31.83181238	    -14.54133921	     15.77984118	      3.01785116	    -26.84090734	     -1.30498654	      7.37350371	      4.25511303	     -3.03247244	      4.83466418	     11.96745235	     11.72519192	    -21.68070570	      6.11515151	     -5.99637089	     25.84061179	     -1.27471955	     -5.12731864	      0.00000000	      0.00000000	      0.00000000
      0.67000000	     12.19145207	      9.36117251	    -84.05188266	     -0.22158976	      0.94648512	     -0.10502092	     32.59770096	    -14.66613934	     16.14301494	      1.25084261	    -26.89353652	     -0.96597391	      7.67580550	      3.65265621	     -2.80034184	      4.30953346	     12.18689270	     12.24656071	    -22.30463639	      6.03285159	     -6.01294683	     25.94702161	     -1.26304880	     -5.16811787	      0.00000000	      0.00000000	      0.00000000
      0.68000000	     12.44467198	      9.66104259	    -83.96776378	     -0.22100197	      0.94467119	     -0.09279310	     33.78927640	    -15.16913258	     16.37631103	     -1.13908645	    -25.69117402	      0.37006789	      7.59296180	      0.94916127	     -2.27026728	      4.08353455	     12.58912089	     12.87564067	    -22.85579822	      6.23242993	     -5.94846865	     25.60745163	     -1.57689751	     -5.32699383	      0.00000000	      0.00000000	      0.00000000
      0.69000000	     12.75413841	      9.36958152	    -83.73102948	     -0.22206083	      0.94320557	     -0.07969693	     34.65580259	    -15.32168766	     16.24061111	     -4.59005828	    -24.68815687	      1.20872739	      8.66050141	      0.07249574	     -2.08045186	      3.22049132	     12.69931238	     13.13936032	    -23.47350034	      6.13101784	     -5.97616303	     25.56729392	     -1.32333349	     -5.33126422	      0.00000000	      0.00000000	      0.00000000
      0.70000000	     12.75823517	      9.10383297	    -83.12245897	     -0.22212401	      0.94237802	     -0.06599744	     35.02633741	    -15.64462428	     15.05008049	     -7.62048966	    -22.88715184	      2.40312627	      9.13432969	     -1.91646215	     -1.84314506	      2.35503897	     12.55612777	     13.83530501	    -24.11557563	      6.09981882	     -6.06689695	     25.27729260	     -1.28933030	     -5.28648103	      0.00000000	      0.00000000	      0.00000000
      0.71000000	     12.58610578	      8.80526448	    -82.78376030	     -0.22284189	      0.94148648	     -0.05202495	     35.23070196	    -15.60545412	     13.94920103	    -10.30679303	    -21.11058614	      3.41856570	      9.09769246	     -3.78342511	     -1.68395938	      1.56313957	     12.13237271	     13.90189468	    -24.82091741	      5.69026613	     -6.11120049	     24.86082910	     -1.27304221	     -5.12486976	      0.00000000	      0.00000000	      0.00000000
      0.72000000	     11.79134705	      8.37767445	    -82.12753487	     -0.22327393	      0.94159601	     -0.03722132	     34.57238478	    -15.07027397	     11.86469039	    -11.71355858	    -19.22754638	      3.98896576	      8.61835839	     -5.98309426	     -1.59130950	      0.74224690	     10.97649674	     13.81759986	    -25.64968338	      4.88555104	     -6.13998934	     24.40050475	     -1.50117523	     -5.01098159	      0.00000000	      0.00000000	      0.00000000
      0.73000000	     11.47306800	      8.20511371	    -81.83404540	     -0.22541537	      0.94050371	     -0.02305785	     34.61628547	    -14.45813668	     11.39176254	    -13.46179911	    -19.02421184	      4.17029674	      8.70573271	     -6.34559285	     -1.56509624	      0.40597914	     10.17580120	     13.48163170	    -26.77456858	      4.36352727	     -6.37400472	     23.97968558	     -1.23822373	     -4.90835227	      0.00000000	      0.00000000	      0.00000000
      0.74000000	     10.42701397	      7.85726790	    -81.16866913	     -0.22553237	      0.94115097	     -0.00870756	     33.56788739	    -13.54239428	      9.61216996	    -13.46144480	    -17.10695841	      4.07938812	      6.62151825	     -9.03896385	     -1.16362726	      0.09708420	      8.84457096	     13.34664861	    -28.16258990	      4.03337566	     -6.39351524	     23.21331797	     -0.98602726	     -4.59843812	      0.00000000	      0.00000000	      0.00000000
      0.75000000	     10.01375890	      7.98899307	    -80.86519613	     -0.22712599	      0.94067775	      0.00497202	     33.52128003	    -12.80251279	      9.45850364	    -14.08144461	    -16.24384744	      3.66369113	      4.54331397	    -10.49439973	     -0.83703611	      0.44934020	      8.03332063	     13.03822647	    -29.68004289	      3.69494989	     -6.68836027	     22.08267607	     -0.95672280	     -4.06638999	      0.00000000	      0.00000000	      0.00000000
      0.76000000	      9.24652942	      8.39409418	    -80.41849197	     -0.22695119	      0.94052812	      0.01771796	     33.39016547	    -12.19487030	      8.79196706	    -13.98904541	    -13.74729720	      3.50086984	      1.11900565	    -14.69898990	     -0.58568326	      1.47787938	      7.37047372	     13.45200825	    -31.79294485	      4.77415976	     -6.61681668	     20.88267844	      0.53636058	     -3.06567605	      0.00000000	      0.00000000	      0.00000000
      0.77000000	      9.00984571	      8.93857109	    -80.35185234	     -0.22853158	      0.93937831	      0.03009181	     34.07549825	    -11.69073663	      9.24617411	    -15.19584082	    -12.86914340	      3.16318979	      0.01242982	    -16.11228428	     -1.06294441	      2.79820342	      6.89913400	     13.53547398	    -34.03425514	      4.27029459	     -7.43293045	     18.98508725	     -0.97025125	     -2.02300036	      0.00000000	      0.00000000	      0.00000000
      0.78000000	      8.07070798	      9.53782658	    -80.05767906	     -0.22865073	      0.93913107	      0.04199093	     34.31696897	    -11.07152994	      8.85057883	    -15.47737570	    -11.27975821	      3.33728990	     -2.41080837	    -19.76493651	     -1.78014857	      4.61716524	      5.94963020	     14.03100293	    -36.86321536	      4.82080898	     -8.06820492	     17.17463276	     -0.45230372	     -0.89162728	      0.00000000	      0.00000000	      0.00000000
      0.79000000	      7.30005844	     10.04736294	    -79.89319903	     -0.22896051	      0.93864232	      0.05363163	     34.79891663	    -10.57595898	      9.36403069	    -16.59654889	    -11.47525727	      3.85681400	     -3.18144284	    -20.22767491	     -7.49218689	      6.57865545	      5.17029104	     14.17299734	    -39.89679606	      5.51633040	     -8.62942028	     15.35419329	      0.29216436	      5.04647683	      0.00000000	      0.00000000	      0.00000000
